<svg width="50" height="50" viewBox="5 12 40 30" fill="none" xmlns="http://www.w3.org/2000/svg">
<path d="M10.9854 15.1834C10.9813 15.1194 10.9777 15.0582 10.9744 15H39.0256C39.0223 15.0582 39.0187 15.1194 39.0147 15.1834C38.9661 15.9575 38.8679 17.0757 38.7316 18.4312C38.4593 21.1384 38.0386 24.7537 37.5708 28.3718C37.1027 31.9912 36.589 35.6015 36.1313 38.3016C35.9018 39.6551 35.6895 40.7611 35.5071 41.5204C35.4618 41.7094 35.4201 41.8687 35.3827 42H35.3685H35.3454H35.3218H35.2979H35.2737H35.2491H35.2241H35.1988H35.1732H35.1472H35.1208H35.0941H35.0671H35.0397H35.012H34.9839H34.9556H34.9268H34.8978H34.8684H34.8387H34.8086H34.7782H34.7475H34.7165H34.6852H34.6535H34.6215H34.5892H34.5566H34.5237H34.4905H34.4569H34.4231H34.3889H34.3544H34.3197H34.2846H34.2493H34.2136H34.1776H34.1414H34.1049H34.068H34.0309H33.9935H33.9558H33.9178H33.8796H33.841H33.8022H33.7631H33.7237H33.6841H33.6442H33.604H33.5635H33.5228H33.4818H33.4406H33.3991H33.3573H33.3153H33.273H33.2305H33.1877H33.1446H33.1013H33.0578H33.014H32.97H32.9257H32.8812H32.8364H32.7914H32.7462H32.7007H32.655H32.6091H32.5629H32.5166H32.4699H32.4231H32.376H32.3288H32.2813H32.2335H32.1856H32.1375H32.0891H32.0405H31.9918H31.9428H31.8936H31.8442H31.7946H31.7448H31.6948H31.6446H31.5942H31.5436H31.4929H31.4419H31.3908H31.3394H31.2879H31.2362H31.1843H31.1322H31.08H31.0276H30.975H30.9222H30.8692H30.8161H30.7628H30.7094H30.6558H30.602H30.5481H30.494H30.4397H30.3853H30.3307H30.276H30.2211H30.1661H30.111H30.0556H30.0002H29.9446H29.8888H29.833H29.7769H29.7208H29.6645H29.6081H29.5515H29.4948H29.438H29.3811H29.324H29.2668H29.2095H29.1521H29.0946H29.0369H28.9792H28.9213H28.8633H28.8052H28.747H28.6887H28.6303H28.5718H28.5131H28.4544H28.3956H28.3367H28.2777H28.2186H28.1594H28.1002H28.0408H27.9814H27.9218H27.8622H27.8025H27.7428H27.6829H27.623H27.563H27.503H27.4428H27.3826H27.3224H27.262H27.2016H27.1412H27.0807H27.0201H26.9595H26.8988H26.8381H26.7773H26.7165H26.6556H26.5946H26.5337H26.4727H26.4116H26.3505H26.2894H26.2282H26.167H26.1058H26.0445H25.9832H25.9219H25.8606H25.7992H25.7378H25.6764H25.615H25.5535H25.4921H25.4306H25.3691H25.3076H25.2461H25.1846H25.1231H25.0615H25H24.9385H24.877H24.8155H24.7539H24.6924H24.6309H24.5694H24.508H24.4465H24.3851H24.3236H24.2622H24.2008H24.1395H24.0781H24.0168H23.9555H23.8942H23.833H23.7718H23.7106H23.6495H23.5884H23.5274H23.4664H23.4054H23.3445H23.2836H23.2227H23.162H23.1012H23.0405H22.9799H22.9193H22.8588H22.7984H22.738H22.6777H22.6174H22.5572H22.4971H22.437H22.377H22.3171H22.2573H22.1975H22.1378H22.0782H22.0187H21.9592H21.8999H21.8406H21.7814H21.7223H21.6633H21.6044H21.5456H21.4869H21.4283H21.3698H21.3113H21.253H21.1948H21.1367H21.0787H21.0209H20.9631H20.9054H20.8479H20.7905H20.7332H20.676H20.6189H20.562H20.5052H20.4485H20.392H20.3355H20.2793H20.2231H20.1671H20.1112H20.0555H19.9999H19.9444H19.8891H19.8339H19.7789H19.724H19.6693H19.6147H19.5603H19.5061H19.452H19.398H19.3442H19.2906H19.2372H19.1839H19.1308H19.0778H19.0251H18.9725H18.92H18.8678H18.8157H18.7638H18.7121H18.6606H18.6093H18.5581H18.5072H18.4564H18.4058H18.3554H18.3052H18.2552H18.2054H18.1558H18.1064H18.0572H18.0083H17.9595H17.9109H17.8626H17.8144H17.7665H17.7188H17.6713H17.624H17.5769H17.5301H17.4835H17.4371H17.3909H17.345H17.2993H17.2538H17.2086H17.1636H17.1189H17.0743H17.0301H16.986H16.9422H16.8987H16.8554H16.8124H16.7696H16.727H16.6847H16.6427H16.6009H16.5594H16.5182H16.4772H16.4365H16.396H16.3558H16.3159H16.2763H16.2369H16.1978H16.159H16.1205H16.0822H16.0442H16.0065H15.9691H15.932H15.8952H15.8586H15.8224H15.7864H15.7508H15.7154H15.6803H15.6456H15.6111H15.577H15.5431H15.5096H15.4763H15.4434H15.4108H15.3785H15.3465H15.3149H15.2835H15.2525H15.2218H15.1914H15.1614H15.1316H15.1023H15.0732H15.0445H15.0161H14.988H14.9603H14.9329H14.9059H14.8792H14.8528H14.8268H14.8012H14.7759H14.7509H14.7263H14.7021H14.6782H14.6547H14.6315H14.6173C14.5799 41.8687 14.5383 41.7094 14.4929 41.5204C14.3105 40.7611 14.0982 39.6551 13.8688 38.3016C13.411 35.6015 12.8973 31.9912 12.4293 28.3718C11.9614 24.7537 11.5407 21.1384 11.2684 18.4312C11.1321 17.0757 11.034 15.9575 10.9854 15.1834Z" stroke="black" stroke-width="2"/>
<path d="M30.0299 11.2425L30.0299 11.2427L30.0299 11.2428L30.2192 12H19.7808L19.9701 11.2428L19.9701 11.2427L19.9701 11.2425L19.9704 11.2414L19.9721 11.2347L19.9797 11.2052C19.9866 11.1786 19.997 11.1385 20.0109 11.0869C20.0386 10.9835 20.0795 10.8344 20.1319 10.655C20.2371 10.2941 20.3856 9.81974 20.5613 9.35112C20.741 8.87203 20.9322 8.44535 21.1136 8.155C21.1556 8.08787 21.1914 8.03721 21.2202 8H28.7798C28.8086 8.03721 28.8444 8.08787 28.8864 8.155C29.0678 8.44535 29.259 8.87203 29.4387 9.35112C29.6144 9.81974 29.7629 10.2941 29.8681 10.655C29.9205 10.8344 29.9614 10.9835 29.9891 11.0869C30.003 11.1385 30.0134 11.1786 30.0203 11.2052L30.0279 11.2347L30.0296 11.2414L30.0299 11.2425ZM31 12V11L31.0001 12H31ZM18.9999 12L19 11V12H18.9999ZM21.2963 7.9151C21.2963 7.91516 21.2952 7.91614 21.293 7.91783C21.2952 7.91588 21.2963 7.91504 21.2963 7.9151ZM28.7037 7.9151C28.7037 7.91504 28.7048 7.91588 28.707 7.91778C28.7048 7.91612 28.7037 7.91516 28.7037 7.9151Z" stroke="none" stroke-width="2"/>
<line x1="25" y1="20" x2="25" y2="37" stroke="black" stroke-width="2" stroke-linecap="round"/>
<line x1="19" y1="20" x2="19" y2="37" stroke="black" stroke-width="2" stroke-linecap="round"/>
<line x1="31" y1="20" x2="31" y2="37" stroke="black" stroke-width="2" stroke-linecap="round"/>
<rect x="1" y="1" width="48" height="48" stroke="none" stroke-width="2"/>
</svg>
